<?xml version="1.0" encoding="UTF-8" standalone="no"?>
<svg
   xmlns:dc="http://purl.org/dc/elements/1.1/"
   xmlns:cc="http://creativecommons.org/ns#"
   xmlns:rdf="http://www.w3.org/1999/02/22-rdf-syntax-ns#"
   xmlns:svg="http://www.w3.org/2000/svg"
   xmlns="http://www.w3.org/2000/svg"
   xmlns:sodipodi="http://sodipodi.sourceforge.net/DTD/sodipodi-0.dtd"
   xmlns:inkscape="http://www.inkscape.org/namespaces/inkscape"
   viewBox="0 0 864 679"
   width="864"
   height="679"
   id="svg11511"
   version="1.1"
   inkscape:version="0.91 r13725"
   sodipodi:docname="three-eyed-monster-guy-renix.svg">
  <metadata
     id="metadata11523">
    <rdf:RDF>
      <cc:Work
         rdf:about="">
        <dc:format>image/svg+xml</dc:format>
        <dc:type
           rdf:resource="http://purl.org/dc/dcmitype/StillImage" />
        <dc:title></dc:title>
      </cc:Work>
    </rdf:RDF>
  </metadata>
  <defs
     id="defs11521" />
  <sodipodi:namedview
     pagecolor="#ffffff"
     bordercolor="#666666"
     borderopacity="1"
     objecttolerance="10"
     gridtolerance="10"
     guidetolerance="10"
     inkscape:pageopacity="0"
     inkscape:pageshadow="2"
     inkscape:window-width="1916"
     inkscape:window-height="1032"
     id="namedview11519"
     showgrid="false"
     inkscape:zoom="0.25271364"
     inkscape:cx="716.93291"
     inkscape:cy="196.52112"
     inkscape:window-x="4"
     inkscape:window-y="1"
     inkscape:window-maximized="0"
     inkscape:current-layer="Background" />
  <style
     id="style11513">
		tspan { white-space:pre }
		.shp0 { fill: #000000 } 
		.shp1 { fill: #ffffff } 
	</style>
  <g
     id="Background">
    <path
       style="fill:#000000;fill-rule:evenodd"
       d="m 491.3418,68.958984 c -0.22299,0.05127 -0.39258,1.097266 -0.39258,2.541016 0,1.65 -0.83008,27.3 -1.83008,57 -1.01,29.7 -2.2385,54.75945 -2.72852,55.68945 -0.68999,1.31 -7.39062,-10.16 -29.39062,-50.25 -15.68,-28.58 -28.60047,-51.839216 -28.73047,-51.699216 -0.13,0.14 6.03117,26.809766 13.70117,59.259766 7.66,32.45 13.71852,60.01 13.47852,61.25 -0.25,1.24 -1.12922,2.25 -1.94922,2.25 -0.82,0 -1.5,0.68 -1.5,1.5 -3.03081,7.48088 -13.59481,13.73329 -17,20 0,0.82 -0.68,1.5 -1.5,1.5 -1.28,0 -1.5,2.78 -1.5,19 0,16.22 0.22,19 1.5,19 4.06149,5.41724 10.2243,14.9195 18.5,15 2.67,0 3,0.33 3,3 0,2 -0.5,3 -1.5,3 -2.63427,2.10619 -4.67929,13.96842 -6.5,14 -6.98995,27.79676 -10.89231,69.44831 -13.5,74 -1.19,0 -1.5,1.44 -1.5,7 l 0,7 c -52.02688,5.2583 -94.35316,-8.94864 -131,-9 -6,0 -10,-0.4 -10,-1 0,-0.55 -2.25,-1 -5,-1 -3.78,0 -5,-0.37 -5,-1.5 3.2994,-3.53587 5.58832,-13.5703 5.59707,-18.04067 C 290.13664,336.31402 298.551,321.42013 311,290 c 0,-5.33 0.22,-6 2,-6 1.11,0 2,-0.67 2,-1.5 0,-0.82 0.68,-1.5 1.5,-1.5 0.82,0 1.5,-0.68 1.5,-1.5 4.71285,-1.07782 26.84165,-8.01943 27,-12 12.73193,-1.65503 26.98333,-37.74421 27,-43.5 -0.48786,-17.18096 -25.59314,-33.71271 -33.5,-34 -10.79632,-4.17848 -28.46493,-8.97208 -35.5,-9 -6.99266,-1.72168 -20.34717,5.08383 -25,9 -2,0 -3,0.5 -3,1.5 0,0.83 -0.89,1.5 -2,1.5 -18.91393,16.56949 -21.997,35.43177 -22,48.5 -0.73599,13.09449 4.00273,18.80974 4.31941,25.2359 2.68977,4.49117 12.35427,11.40106 15.68059,12.7641 0,0.83 0.89,1.5 2,1.5 1.54261,18.84277 -22.64612,64.816 -30.5,85 -0.82,0 -1.5,0.68 -1.5,1.5 0,0.82 -0.68,1.5 -1.5,1.5 -19.41207,-4.02035 -49.72197,-20.5438 -68.5,-16.5 0,-1.27 -2.33,-1.5 -15,-1.5 l -15,0 c -0.0999,29.16318 0.43116,51.35083 23,79 0,2 0.5,3 1.5,3 0.82,0 1.5,0.68 1.5,1.5 0,0.82 -0.68,1.5 -1.5,1.5 -2.16896,3.28403 -9.98456,14.9994 -10,15 -0.82,0 -1.5,0.68 -1.5,1.5 0,0.82 -0.68,1.5 -1.5,1.5 -2.37667,5.87175 -15.45753,14.54579 -15.5,20 0,2 -0.5,3 -1.5,3 -0.82,0 -1.5,-0.68 -1.5,-1.5 0,-0.82 -0.68,-1.5 -1.5,-1.5 -0.82,0 -1.5,-0.68 -1.5,-1.5 -5.94953,-5.02211 -8.45916,-9.136 -14,-14.5 0,-0.55 -0.67,-1 -1.5,-1 -0.83,0 -1.5,-0.68 -1.5,-1.5 0,-1.05 -1.06,-1.5 -3.5,-1.5 -2.44,0 -3.5,0.45 -3.5,1.5 0,1.05 -1.06,1.5 -3.5,1.5 -1.92,0 -3.5,0.45 -3.5,1 0,0.55 0.9,1 2,1 3.98246,0.82012 5.24106,8.96891 7,9 1.11,0 2,0.67 2,1.5 4.61915,4.13245 9.84718,14.58014 14.5,16.5 -1.41387,2.99094 7.88135,9.00526 8.5,10.5 0,0.82 0.68,1.5 1.5,1.5 0.82,0 1.5,-0.68 1.5,-1.5 0,-0.83 0.89,-1.5 2,-1.5 1.11,0 2,-0.67 2,-1.5 0.81378,-4.87846 12.97288,-13.71196 13,-16.5 0,-2 0.5,-3 1.5,-3 8.15458,-2.24696 19.92396,-25.9368 23.5,-26 1.11,0 2,-0.67 2,-1.5 0,-0.82 0.68,-1.5 1.5,-1.5 0.82,0 1.5,0.68 1.5,1.5 0,0.83 0.89,1.5 2,1.5 9.08726,4.97488 25.76995,25.80063 33.5,29 1.19543,1.65092 3.82404,2.86679 4.5,4.5 0,0.82 -0.68,1.5 -1.5,1.5 -1,0 -1.5,1 -1.5,3 0,2 -0.5,3 -1.5,3 -8.76779,6.74939 -27.86351,44.22631 -35.5,55 0,2 -0.5,3 -1.5,3 -1,0 -1.5,1 -1.5,3 0,2.33 -0.44,3 -2,3 -1.11,0 -2,-0.67 -2,-1.5 -13.1768,-10.02167 -21.46624,-33.47895 -34.5,-39.5 -1.9425,1.70487 -10.91389,12.07956 -11.5,13.5 0,0.83 0.68,1.5 1.5,1.5 0.82,0 1.5,0.67 1.5,1.5 2.68412,0.0486 10.97183,12.47955 11.5,12.5 0.82,0 1.5,0.67 1.5,1.5 0,0.83 0.89,1.5 2,1.5 6.51841,4.45269 19.01311,17.00311 22,22.5 1.17415,2.55079 9.30821,7.72686 10,9 0,0.83 0.68,1.5 1.5,1.5 0.82,0 1.5,-0.67 1.5,-1.5 0,-0.83 0.89,-1.5 2,-1.5 5.98655,0.64422 13.06162,-26.86621 16.5,-27 9.44968,-10.78673 20.39029,-32.47625 25.5,-38 0,-2 0.5,-3 1.5,-3 0.82,0 1.5,-0.68 1.5,-1.5 0,-0.82 0.68,-1.5 1.5,-1.5 6.7239,-10.12727 5.60246,-8.06835 15,-8 22.74276,12.08091 41.21437,20.83528 63.5,27.5 2.50972,2.91448 6.9794,0.5956 7,4.5 0,2 -0.5,3 -1.5,3 -0.33455,3.36776 -5.48701,7.38182 -5.5,8.5 -12.57466,22.71681 -21.18023,47.45784 -31,55.5 -10.05674,-2.47233 -20.74621,-8.89508 -32,-13.5 0,-1.05 -1.06,-1.5 -3.5,-1.5 -7.0634,0.9995 -6.12308,9.59162 -12,12 -0.82,0 -1.5,0.67 -1.5,1.5 2.16574,2.4781 16.96156,5.12291 17,6 0.0199,0.45465 14.79521,3.53424 23.5,7.5 5.59219,0.46553 23.1196,8.96712 26.5,9 3.06629,-0.018 5.94215,-9.32879 8.5,-12 1.11,0 1.5,-1.17 1.5,-4.5 5.70904,-15.65192 18.23675,-44.6254 27,-60 0,-1.56 0.57,-2.5 1.5,-2.5 0.82,0 1.5,-0.67 1.5,-1.5 0,-1.31 5.72,-1.5 45.5,-1.5 l 45.5,0 c -1.85982,26.21781 -6.96362,44.5303 -7,67 l 0,9 c -15.28497,0.006 -24.17304,1.32358 -47,3 l -17,0 c -0.6558,11.5856 4,4.45139 4,14 l 83,0 c 0.005,-14.92499 3.48894,-22.62521 4,-46.5 0.006,-12.01051 1.15487,-18.48373 3,-35 l 0,-11.5 60,0 c 1.12865,0.61475 5.05488,16.92794 5.5,17 4.43453,1.4893 7.84085,32.67569 11.5,41 0.0579,19.85985 -20.46332,11.26574 -37,22.5 0,1.13 -1.22,1.5 -5,1.5 -3.78,0 -5,0.37 -5,1.5 0,1 -1,1.5 -3,1.5 -6.11117,0.0283 0.31743,17.26276 3.5,17 2.44,0 3.5,-0.45 3.5,-1.5 0,-1.13 1.22,-1.5 5,-1.5 12.04332,-0.0478 33.71001,-13.41269 50,-14 3.78,0 5,-0.37 5,-1.5 0,-1.05 1.06,-1.5 3.5,-1.5 8.32424,-0.57337 -0.47549,-20.89402 -0.5,-22.5 -2.10852,-19.48282 -6.23416,-45.15138 -10,-55.5 0,-3.33 0.33,-4 2,-4 1.11,0 2,-0.67 2,-1.5 0,-1 1,-1.5 3,-1.5 20.91622,-0.20347 44.32099,-19.18597 65,-24 1.11,0 2,0.67 2,1.5 0,0.82 0.67,1.5 1.5,1.5 1.17,0 1.5,1.33 1.5,6 7.16443,23.08127 16.94605,38.80003 18.5,59 0.83,0 1.5,0.67 1.5,1.5 0,0.83 -0.67,1.5 -1.5,1.5 -0.83,0 -1.5,0.45 -1.5,1 -15.06796,4.01645 -35.16697,9.84284 -50.5,16 -7.7044,0.0299 5.43928,22.77522 10.5,16.5 8.00689,-6.52317 36.37416,-10.78216 40,-15 0,-1.13 1.22,-1.5 5,-1.5 3.83284,-0.0152 10.45144,-4.32246 15,-6 2.67,0 3,-0.33 3,-3 -4.84436,-22.82732 -13.74591,-46.89155 -20,-67 0,-4.67 -0.33,-6 -1.5,-6 -1.11,0 -1.5,-1.17 -1.5,-4.5 -0.24878,-2.50495 3.22893,-7.4599 5,-7.5 1.1,0 2,-0.45 2,-1 7.90443,-9.63551 26.64306,-15.74627 34.5,-28 8.399,0.32681 17.91629,36.1654 27,41 1,0 1.5,1 1.5,3 0.008,0.99353 10.3427,11.0151 10,15 1.42838,5.41184 -2.8349,3.34961 -3,7.5 -11.92622,9.24669 -23.5182,13.92783 -34,23 -2.23638,0.0599 -6.36101,4.46289 -8,4.5 -1.11,0 -2,0.67 -2,1.5 0,0.83 0.89,1.5 2,1.5 1.11,0 2,0.67 2,1.5 0.71068,2.61806 12.84251,15.45115 15,15.5 1.11,0 2,-0.67 2,-1.5 0,-0.83 0.67,-1.5 1.5,-1.5 5.78525,-3.5259 8.05385,-6.90335 14.5,-9.5 7.61236,-8.69035 34.47673,-23.91948 40,-30 12.28072,-6.60523 -1.1452,-16.45201 -10,-29 -10.9994,-13.4087 -19.03898,-29.32247 -27.0282,-40.2641 -9.6741,-10.76123 -7.82611,-8.21101 -5.9718,-12.7359 3.34187,-8.15483 25.86304,-23.69674 28.5,-33.5 0.83,0 1.5,-0.68 1.5,-1.5 0,-0.82 0.67,-1.5 1.5,-1.5 0.83,0 1.5,0.68 1.5,1.5 0,0.83 0.89,1.5 2,1.5 14.05194,5.88749 23.92766,21.55005 35.5,27 1.18325,0.55202 18.90266,10.83239 11.5,11 -6.70942,0.11859 -13.09144,26.9023 -20,30 -1.79293,0.0406 -6.30963,7.56088 -9,9.5 0,0.83 0.89,1.5 2,1.5 1.06491,0.0241 16.3032,10.82402 19,10.5 8.12337,4.47288 27.36137,-46.11538 34.5,-54.5 4.0484,-1.71979 -4.39936,-6.93431 -6.5,-8 -13.5452,-0.3067 -43.92316,-37.99934 -55,-47 -0.0841,-1.92318 4.48894,-7.75664 11.81941,-19.08351 C 772.08236,380.69271 772.02443,336.16303 733,343.5 c -0.0889,1.22019 -31.65754,3.52133 -39.5,4.5 -8.0683,0.007 -10.47997,1.32802 -20.5,3 l -7,0 c 2.69248,-12.55711 8.57023,-25.87801 9.11063,-39.41432 C 675.13393,298.07177 676.82148,300.97946 680,287 l 0,-6 c 13.70037,-1.67422 28.77514,-12.09003 40,-22 0,-0.55 0.67,-1 1.5,-1 20.73082,-11.5527 18.5212,-32.19202 18.5,-44.5 -0.0219,-12.73746 -1.836,-18.4695 -13,-25 0,-1.05 -1.06,-1.5 -3.5,-1.5 -2.44,0 -3.5,-0.45 -3.5,-1.5 0,-1.29 -3.28,-1.5 -23.5,-1.5 -7.40232,0.003 -47.59125,2.08901 -57,18 -2.44,0 -3.5,0.45 -3.5,1.5 -7.08018,17.27706 -23.96363,51.09971 4,70 0,0.82 0.67,1.5 1.5,1.5 1.11,0 1.5,1.17 1.5,4.5 0,3.33 -0.39,4.5 -1.5,4.5 -17.34282,29.26801 -15.5,61.14432 -15.5,88 -45.39199,6.12988 -94.30246,12.88149 -148.5,17 l -8.5,0 c 0,-5 0.5,-6 1.5,-6 1.19,0 1.5,-1.44 1.5,-7 6.01912,-26.41634 20.33363,-53.06117 24,-81.5 0,-3.33 0.39,-4.5 1.5,-4.5 1.22423,-2.55344 11.88961,-11.97738 15,-12 2.40861,-1.31368 19.417,-8.36687 19.5,-10.5 0,-0.83 0.89,-1.5 2,-1.5 11.30156,-5.18147 24.4542,-26.30821 25,-39.5 -0.25754,-4.73296 -2.98279,-5.5323 -3.01953,-9.25 -0.01,-4.38 2.00976,-8.33 26.00976,-50.75 18.43,-32.59 27.32047,-49.35 30.48047,-57.5 2.46,-6.33 4.37,-11.610234 4.25,-11.740234 -0.12,-0.13 -16.4207,22.020464 -36.2207,49.230464 -19.8,27.2 -36.34,49.47024 -36.75,49.49024 -0.41,0.01 -0.75,-1.10047 -0.75,-2.48047 0,-1.37 9.4407,-28.49 20.9707,-60.25 11.54,-31.76 20.72993,-57.86 20.41992,-58 -0.29998,-0.14 -15.28101,23.04 -33.29101,51.5 L 518.36914,178.5 C 512.65914,178.89 511,178.55 511,178 c 0,-0.55 -4.2893,-25.19 -9.5293,-54.75 -5.24,-29.56 -9.75125,-53.97 -10.03125,-54.25 -0.0337,-0.035 -0.0658,-0.04834 -0.0977,-0.04102 z M 721.5,94 c -0.83,0 -1.5,0.67 -1.5,1.5 0,0.83 -0.67,1.5 -1.5,1.5 -1.42759,1.361711 -13.19495,19.99461 -13.5,20 -1.11,0 -2,-0.67 -2,-1.5 0,-0.83 -0.67,-1.5 -1.5,-1.5 -2.82918,-1.96045 -13.91522,-13.96038 -16.5,-14 -1.11,0 -2,-0.67 -2,-1.5 0,-0.83 -0.67,-1.5 -1.5,-1.5 -0.93,0 -1.5,0.94 -1.5,2.5 -5.717,9.73935 -6.67734,27.67293 -27,35.5 -5.98887,4.41697 -9.28106,7.49381 -15,8 -1.56,0 -2,0.67 -2,3 1.34213,3.22866 5.83004,7.64507 7,10.5 0,1.26 2.17,1.5 13.5,1.5 40.90994,-2.35118 66.54501,-11.82941 90,-12 1.16514,-1.57544 10.36027,-3.42059 10.5,-4.5 0,-0.82 0.67,-1.5 1.5,-1.5 0.83,0 1.5,-0.45 1.5,-1 0,-0.55 -1.58,-1 -3.5,-1 -0.40546,-1.56676 -16.46037,-6.50365 -16.5,-7.5 0,-0.82 -0.67,-1.5 -1.5,-1.5 -3.24774,-7.91335 -10.24713,-27.16616 -15.5,-32 0,-2 -0.5,-3 -1.5,-3 z M 214,127.5 c -2.41448,2.70187 -7.45635,2.2383 -10,6 0,0.83 0.89,1.5 2,1.5 1.11,0 2,0.67 2,1.5 0,1 1,1.5 3,1.5 1.65,0 3,0.45 3,1 0,0.55 1.57,1 3.5,1 2.44,0 3.5,0.45 3.5,1.5 13.77637,9.47407 18.09584,16.7111 30.06996,21.66703 0.82,0 6.93004,4.51297 6.93004,5.33297 0,1.31 6.22,1.5 50,1.5 l 50,0 c 2.2408,-9.38546 -1.24799,-15.69801 -1.26416,-21.24798 C 352.56572,137.48025 339.36339,129.72737 335,127.5 c 0,-1.27 -1.56809,-5.96358 -16.00809,-5.96358 -14.44,0 -17.99191,4.69358 -17.99191,5.96358 -1.49312,2.33669 -17.04699,15.47842 -18,15.5 -1.11,0 -2,0.67 -2,1.5 0,0.82 -0.68,1.5 -1.5,1.5 -1.68665,-1.58195 -10.45368,-5.98982 -11.5,-6 -2.78513,-3.15073 -48.28247,-16.28266 -54,-12.5 z M 494,199 c 19.32521,-0.39843 41.39438,13.39322 42,35 -0.57068,18.77661 -17.54028,34.42967 -42,35 -19.24183,7.06524 -41.97806,-21.45114 -42,-35 0,-7.33 0.28,-9 1.5,-9 10.55225,-13.12893 16.23539,-20.38762 40.5,-26 z m -186,3 c 8.22,0 10,0.27 10,1.5 17.44669,7.34381 23.98787,14.81552 24,27.5 0,8.33 -0.15,9 -2,9 -8.09357,12.61276 -21.55004,17.98536 -32,18 -8.22,0 -10,-0.27 -10,-1.5 -7.33633,-1.41354 -12.89523,-4.46283 -20,-15 0,-0.82 -0.68,-1.5 -1.5,-1.5 -1.23,0 -1.5,-1.78 -1.5,-10 0,-8.22 0.27,-10 1.5,-10 5.19181,-12.13676 12.76361,-16.47305 31.5,-18 z m 375,0 c 3.78104,0.005 19.34961,3.71996 24,7.5 0,0.82 0.67,1.5 1.5,1.5 5.01485,7.55802 8.49518,14.96037 8.5,20 -0.004,4.22836 -6.79669,21.11007 -17,22.5 0,1.05 -1.06,1.5 -3.5,1.5 -2.44,0 -3.5,0.45 -3.5,1.5 0,1.23 -1.78,1.5 -10,1.5 -8.22,0 -10,-0.27 -10,-1.5 0,-1.05 -1.06,-1.5 -3.5,-1.5 -2.44,0 -3.5,-0.45 -3.5,-1.5 -10.42812,-6.34424 -15.9385,-11.83305 -16,-23.5 -0.14683,-10.40072 8.54517,-22.27685 19.5,-25 2.44,0 3.5,-0.45 3.5,-1.5 0,-1.23 1.78,-1.5 10,-1.5 z m -373.5,9 c -9.87943,-0.0503 -18.48989,9.17898 -18.5,16 0.34058,9.49453 11.34052,15.98767 18.5,16 6.89,0 8.5,-0.28 8.5,-1.5 1.32282,-1.54705 7.45375,-7.06697 8.5,-7.5 1.19,0 1.5,-1.44 1.5,-7 0,-5.56 -0.31,-7 -1.5,-7 -7.88439,-6.52346 -9.08579,-8.98637 -17,-9 z m 373.76367,5.91602 c -6.26629,1.3e-4 -13.67856,6.06371 -15.26367,6.0996 -1.78,0 -2,2.65438 -2,7.98438 0,5.33 0.22,6 2,6 3.00342,0.97204 3.99721,4.96729 6.5,6 0.83,0 1.5,0.68 1.5,1.5 13.98523,10.11469 21.40186,-2.30604 25.5,-7.5 1.17,0 1.5,-1.33 1.5,-6 -0.18896,-9.90691 -12.12035,-13.98901 -18.5,-14 -0.4055,-0.0575 -0.81858,-0.084 -1.23633,-0.084 z M 492.5,217 c -3.89224,-0.0992 -13.46263,4.15801 -13.5,8 -3.66346,11.98948 -1.30365,26.96158 13.5,27 5.11,0 6.5,-0.32 6.5,-1.5 5.08516,-5.77032 9.97645,-8.4184 10,-16.5 -0.25068,-9.2469 -8.80879,-16.98004 -16.5,-17 z"
       id="Path 1"
       inkscape:connector-curvature="0"
       sodipodi:nodetypes="sscccsccsccssccscccsccsscccsssccccccsccccccsccsccssccsccsssccsssssscccccsssccccssscccssccssscccsccscccsscccsscccccccccccccccccsssccccccccccccccssccsccscccssccssccssccccccccsccccccccccssccscccccccsssccccccccccccccccccccccssccccssccccsccccccccccsccsccccssccscsccsccssccccccccsscccccccssssccsscccsccsscccccccccccccccsscccccccsssssccccccccccscccssccccccssscccccc" />
  </g>
</svg>
